<?xml version="1.0" standalone="no"?>
<!DOCTYPE svg PUBLIC "-//W3C//DTD SVG 20010904//EN"
 "http://www.w3.org/TR/2001/REC-SVG-20010904/DTD/svg10.dtd">
<svg version="1.0" xmlns="http://www.w3.org/2000/svg"
 width="225.000000pt" height="225.000000pt" viewBox="0 0 225.000000 225.000000"
 preserveAspectRatio="xMidYMid meet">
<metadata>
Created by potrace 1.14, written by Peter Selinger 2001-2017
</metadata>
<g transform="translate(0.000000,225.000000) scale(0.100000,-0.100000)"
fill="#000000" stroke="none">
<path d="M190 1125 l0 -565 280 0 280 0 0 565 0 565 -280 0 -280 0 0 -565z
m426 357 c12 -9 27 -27 33 -39 15 -30 15 -606 0 -636 -26 -50 -45 -57 -182
-57 l-129 0 -29 29 -29 29 0 317 0 317 29 29 29 29 129 0 c106 0 132 -3 149
-18z"/>
<path d="M405 1375 l-25 -24 0 -226 0 -226 25 -24 c18 -19 35 -25 65 -25 30 0
47 6 65 25 l25 24 0 224 c0 224 0 224 -25 251 -33 36 -95 37 -130 1z"/>
<path d="M850 1125 l0 -565 275 0 275 0 0 565 0 565 -275 0 -275 0 0 -565z
m431 346 l29 -29 0 -320 0 -320 -31 -26 c-29 -25 -36 -26 -154 -26 -118 0
-125 1 -154 26 l-31 26 0 323 0 323 31 26 c29 25 36 26 156 26 124 0 125 0
154 -29z"/>
<path d="M1059 1374 c-24 -26 -24 -26 -24 -249 0 -223 0 -223 24 -249 19 -20
34 -26 66 -26 32 0 47 6 66 26 24 26 24 26 24 249 0 223 0 223 -24 249 -19 20
-34 26 -66 26 -32 0 -47 -6 -66 -26z"/>
<path d="M1500 1125 l0 -565 280 0 280 0 0 565 0 565 -280 0 -280 0 0 -565z
m194 350 c16 -65 104 -88 151 -40 14 13 25 33 25 45 0 17 6 20 50 20 57 0 60
-7 35 -68 -21 -49 -52 -81 -100 -103 -110 -51 -233 15 -260 139 l-7 32 50 0
c45 0 50 -3 56 -25z m276 -394 c0 -43 -10 -66 -81 -190 l-81 -141 -59 0 c-32
0 -59 2 -59 4 0 2 34 63 75 136 41 73 75 134 75 136 0 2 -56 4 -125 4 l-125 0
0 43 c0 24 3 47 7 50 3 4 89 7 190 7 l183 0 0 -49z"/>
</g>
</svg>
